# xmcd CD database file
#
# Track frame offsets:
#	150
#	9534
#	21186
#	32107
#	41541
#	52515
#	61554
#	73264
#	85945
#	98410
#	116027
#	126644
#	137169
#	147181
#	159091
#
# Disc length: 2268 seconds
#
# Revision: 0
# Processed by: cddbd v1.5.1PL2 Copyright (c) Steve Scherf et al.
# Submitted via: CDex 1.40Release
#
DISCID=bf08da0f
DTITLE=Various Artist - Classic Country/Sing Me A Hank Williams Song (Disk 2)
DYEAR=2004
DGENRE=Country
TTITLE0=Move It On Over/Johnny and Jack
TTITLE1=I'm A Long Gone Daddy/Ernest Tubb
TTITLE2=You're Cheatin' Heart/Elvis Presley
TTITLE3=Why Don't You Love Me/George Jones
TTITLE4=Crazy Heart/Sons Of The Pioneers
TTITLE5=Honky Tonk Blues/Charlie Pride
TTITLE6=Lost Highway/Johnny Horton
TTITLE7=I'll Never Get Out Of This World Alive/Asleep At The Wheel
TTITLE8=I Saw The Light/Bobby Bare
TTITLE9=Wedding Bells/Hank Snow
TTITLE10=Mansion On The Hill/The Browns
TTITLE11=They'll Never Take Her Love From Me/Charlie Rich
TTITLE12=I Can't Help It (If I'm Still In Love With You)/Marty Robbins
TTITLE13=Ypu're Gonna Change (Or I'm Gonna Leave)/Emmylou Harris
TTITLE14=Mind Your Own Business/Hank Williams Jr.
EXTD=YEAR: 2004 ID3G: 2
EXTT0=
EXTT1=
EXTT2=
EXTT3=
EXTT4=
EXTT5=
EXTT6=
EXTT7=
EXTT8=
EXTT9=
EXTT10=
EXTT11=
EXTT12=
EXTT13=
EXTT14=
PLAYORDER=
